<?xml version="1.0" encoding="UTF-8" standalone="no"?>
<!DOCTYPE svg PUBLIC "-//W3C//DTD SVG 1.1//EN"
 "http://www.w3.org/Graphics/SVG/1.1/DTD/svg11.dtd">
<!-- Generated by graphviz version 2.43.0 (0)
 -->
<!-- Title: %3 Pages: 1 -->
<svg width="144pt" height="131pt"
 viewBox="0.00 0.00 143.59 131.00" xmlns="http://www.w3.org/2000/svg" xmlns:xlink="http://www.w3.org/1999/xlink">
<g id="graph0" class="graph" transform="scale(1 1) rotate(0) translate(4 127)">
<title>%3</title>
<polygon fill="white" stroke="transparent" points="-4,4 -4,-127 139.59,-127 139.59,4 -4,4"/>
<!-- 4 -->
<g id="node1" class="node">
<title>4</title>
<ellipse fill="none" stroke="black" cx="36.59" cy="-105" rx="27" ry="18"/>
<text text-anchor="middle" x="36.59" y="-101.3" font-family="Times,serif" font-size="14.00">4</text>
</g>
<!-- 13 -->
<g id="node2" class="node">
<title>13</title>
<ellipse fill="none" stroke="black" cx="36.59" cy="-18" rx="27" ry="18"/>
<text text-anchor="middle" x="36.59" y="-14.3" font-family="Times,serif" font-size="14.00">13</text>
</g>
<!-- 4&#45;&gt;13 -->
<g id="edge1" class="edge">
<title>4&#45;&gt;13</title>
<path fill="none" stroke="black" d="M18.95,-91.35C12.17,-85.42 5.2,-77.73 1.59,-69 -2.87,-58.25 2.94,-47.52 11.03,-38.77"/>
<polygon fill="black" stroke="black" points="13.69,-41.07 18.52,-31.64 8.86,-36 13.69,-41.07"/>
<text text-anchor="middle" x="26.59" y="-57.8" font-family="Times,serif" font-size="14.00"> &#160;0/15 &#160;</text>
</g>
<!-- 13&#45;&gt;4 -->
<g id="edge2" class="edge">
<title>13&#45;&gt;4</title>
<path fill="none" stroke="red" d="M45.19,-35.29C47.78,-41.04 50.28,-47.65 51.59,-54 53.25,-62.11 51.81,-70.81 49.28,-78.63"/>
<polygon fill="red" stroke="red" points="46.01,-77.39 45.63,-87.97 52.53,-79.93 46.01,-77.39"/>
<text text-anchor="middle" x="72.09" y="-57.8" font-family="Times,serif" font-size="14.00"> &#160;0/0 &#160;</text>
</g>
<!-- 20 -->
<g id="node3" class="node">
<title>20</title>
<ellipse fill="none" stroke="black" cx="108.59" cy="-105" rx="27" ry="18"/>
<text text-anchor="middle" x="108.59" y="-101.3" font-family="Times,serif" font-size="14.00">20</text>
</g>
</g>
</svg>
