<?xml version="1.0" encoding="UTF-8" standalone="no"?>
<!DOCTYPE svg PUBLIC "-//W3C//DTD SVG 1.1//EN" "http://www.w3.org/Graphics/SVG/1.1/DTD/svg11.dtd">
<!-- Generated by graphviz version 2.40.1 (20161225.0304)
 -->
<!-- Title: g Pages: 1 -->
<svg width="184pt" height="49pt" viewBox="0.00 0.00 183.89 49.08" xmlns="http://www.w3.org/2000/svg" xmlns:xlink="http://www.w3.org/1999/xlink">
<g id="graph0" class="graph" transform="scale(1 1) rotate(0) translate(4 45.0834)">
<title>g</title>
<polygon fill="#ffffff" stroke="transparent" points="-4,4 -4,-45.0834 179.8906,-45.0834 179.8906,4 -4,4"/>
<!-- A -->
<g id="node1" class="node">
<title>A</title>
<ellipse fill="none" stroke="#000000" cx="27" cy="-23.0834" rx="27" ry="18"/>
<text text-anchor="middle" x="27" y="-18.8834" font-family="Times,serif" font-size="14.00" fill="#000000">A</text>
</g>
<!-- B -->
<g id="node2" class="node">
<title>B</title>
<ellipse fill="none" stroke="#000000" cx="148.8906" cy="-23.0834" rx="27" ry="18"/>
<text text-anchor="middle" x="148.8906" y="-18.8834" font-family="Times,serif" font-size="14.00" fill="#000000">B</text>
</g>
<!-- A&#45;&gt;B -->
<g id="edge1" class="edge">
<title>A-&gt;B</title>
<path fill="none" stroke="#000000" d="M54.0515,-23.0834C70.898,-23.0834 92.8106,-23.0834 111.3284,-23.0834"/>
<polygon fill="#000000" stroke="#000000" points="111.4933,-26.5835 121.4933,-23.0834 111.4932,-19.5835 111.4933,-26.5835"/>
<text text-anchor="middle" x="87.9453" y="-27.2834" font-family="Times,serif" font-size="14.00" fill="#000000">0/c</text>
</g>
<!-- B&#45;&gt;A -->
<g id="edge2" class="edge">
<title>B-&gt;A</title>
<path fill="none" stroke="#ff0000" stroke-dasharray="5,2" d="M128.039,-11.1644C120.6535,-7.5679 112.1283,-4.0951 103.8906,-2.2834 90.0478,.7611 85.8428,.7611 72,-2.2834 67.1089,-3.3591 62.1164,-5.0204 57.3213,-6.9455"/>
<polygon fill="#ff0000" stroke="#ff0000" points="55.5617,-3.8977 47.8516,-11.1644 58.4105,-10.2918 55.5617,-3.8977"/>
<text text-anchor="middle" x="87.9453" y="-6.2834" font-family="Times,serif" font-size="14.00" fill="#000000">  0/0  </text>
</g>
</g>
</svg>