<?xml version="1.0" encoding="UTF-8" standalone="no"?>
<!DOCTYPE svg PUBLIC "-//W3C//DTD SVG 1.1//EN"
 "http://www.w3.org/Graphics/SVG/1.1/DTD/svg11.dtd">
<!-- Generated by graphviz version 2.43.0 (0)
 -->
<!-- Title: %3 Pages: 1 -->
<svg width="221pt" height="218pt"
 viewBox="0.00 0.00 221.18 218.00" xmlns="http://www.w3.org/2000/svg" xmlns:xlink="http://www.w3.org/1999/xlink">
<g id="graph0" class="graph" transform="scale(1 1) rotate(0) translate(4 214)">
<title>%3</title>
<polygon fill="white" stroke="transparent" points="-4,4 -4,-214 217.18,-214 217.18,4 -4,4"/>
<!-- 4 -->
<g id="node1" class="node">
<title>4</title>
<ellipse fill="none" stroke="black" cx="103.18" cy="-192" rx="27" ry="18"/>
<text text-anchor="middle" x="103.18" y="-188.3" font-family="Times,serif" font-size="14.00">4</text>
</g>
<!-- 13 -->
<g id="node2" class="node">
<title>13</title>
<ellipse fill="none" stroke="black" cx="39.18" cy="-105" rx="27" ry="18"/>
<text text-anchor="middle" x="39.18" y="-101.3" font-family="Times,serif" font-size="14.00">13</text>
</g>
<!-- 4&#45;&gt;13 -->
<g id="edge1" class="edge">
<title>4&#45;&gt;13</title>
<path fill="none" stroke="black" d="M76.01,-189.76C52.42,-187.08 19.57,-179.1 3.18,-156 -4.12,-145.71 2.94,-134.29 12.69,-124.96"/>
<polygon fill="black" stroke="black" points="15.15,-127.46 20.47,-118.29 10.6,-122.15 15.15,-127.46"/>
<text text-anchor="middle" x="28.18" y="-144.8" font-family="Times,serif" font-size="14.00"> &#160;0/10 &#160;</text>
</g>
<!-- 20 -->
<g id="node3" class="node">
<title>20</title>
<ellipse fill="none" stroke="black" cx="103.18" cy="-18" rx="27" ry="18"/>
<text text-anchor="middle" x="103.18" y="-14.3" font-family="Times,serif" font-size="14.00">20</text>
</g>
<!-- 4&#45;&gt;20 -->
<g id="edge2" class="edge">
<title>4&#45;&gt;20</title>
<path fill="none" stroke="black" d="M111.21,-174.66C113.63,-168.9 115.96,-162.3 117.18,-156 125.75,-111.48 125.75,-98.52 117.18,-54 116.59,-50.95 115.74,-47.83 114.74,-44.76"/>
<polygon fill="black" stroke="black" points="118,-43.48 111.21,-35.34 111.44,-45.93 118,-43.48"/>
<text text-anchor="middle" x="143.68" y="-101.3" font-family="Times,serif" font-size="14.00"> &#160;0/5 &#160;</text>
</g>
<!-- 13&#45;&gt;4 -->
<g id="edge3" class="edge">
<title>13&#45;&gt;4</title>
<path fill="none" stroke="red" d="M50.43,-121.38C57.72,-131.3 67.45,-144.45 76.18,-156 79.01,-159.75 82.04,-163.71 85,-167.57"/>
<polygon fill="red" stroke="red" points="82.4,-169.94 91.28,-175.72 87.95,-165.66 82.4,-169.94"/>
<text text-anchor="middle" x="96.68" y="-144.8" font-family="Times,serif" font-size="14.00"> &#160;0/0 &#160;</text>
</g>
<!-- 13&#45;&gt;20 -->
<g id="edge4" class="edge">
<title>13&#45;&gt;20</title>
<path fill="none" stroke="red" d="M23.16,-89.95C13.42,-79.67 4.24,-65.55 12.18,-54 24.33,-36.3 46.8,-27.54 66.36,-23.22"/>
<polygon fill="red" stroke="red" points="67.09,-26.64 76.26,-21.34 65.78,-19.77 67.09,-26.64"/>
<text text-anchor="middle" x="32.68" y="-57.8" font-family="Times,serif" font-size="14.00"> &#160;0/0 &#160;</text>
</g>
<!-- 20&#45;&gt;4 -->
<g id="edge6" class="edge">
<title>20&#45;&gt;4</title>
<path fill="none" stroke="red" d="M121.45,-31.67C137.19,-43.79 158.81,-63.66 168.18,-87 174.13,-101.85 174.13,-108.15 168.18,-123 160.35,-142.51 143.96,-159.6 129.59,-171.76"/>
<polygon fill="red" stroke="red" points="127.03,-169.33 121.45,-178.33 131.43,-174.78 127.03,-169.33"/>
<text text-anchor="middle" x="192.68" y="-101.3" font-family="Times,serif" font-size="14.00"> &#160;0/0 &#160;</text>
</g>
<!-- 20&#45;&gt;13 -->
<g id="edge5" class="edge">
<title>20&#45;&gt;13</title>
<path fill="none" stroke="black" d="M91.28,-34.28C86.55,-40.39 81.08,-47.51 76.18,-54 69.7,-62.57 62.67,-72.03 56.5,-80.39"/>
<polygon fill="black" stroke="black" points="53.55,-78.5 50.43,-88.62 59.18,-82.65 53.55,-78.5"/>
<text text-anchor="middle" x="96.68" y="-57.8" font-family="Times,serif" font-size="14.00"> &#160;0/5 &#160;</text>
</g>
</g>
</svg>
